<svg xmlns="http://www.w3.org/2000/svg" style="display:none"><symbol id="arrow"><path class="arrow-icon" fill="#D8D8D8" d="M6.683 5.269l4.95-4.95a1 1 0 0 1 1.415 1.414L7.39 7.389a1 1 0 0 1-1.441-.025L.293 1.707A1 1 0 1 1 1.707.293l4.976 4.976z"/></symbol><symbol id="check"><path fill="#4A4A4A" d="M3.836 4.81L8.354.293a1 1 0 0 1 1.414 1.414l-4.95 4.95a.992.992 0 0 1-.174.139 1 1 0 0 1-1.523.129L.293 4.096a1 1 0 0 1 1.414-1.414l2.129 2.129z"/></symbol><symbol id="close"><path fill="#D8D8D8" d="M7.414 6l3.536 3.536a1 1 0 0 1-1.414 1.414L6 7.414 2.464 10.95A1 1 0 1 1 1.05 9.536L4.586 6 1.05 2.464A1 1 0 0 1 2.464 1.05L6 4.586 9.536 1.05a1 1 0 0 1 1.414 1.414L7.414 6z"/></symbol><symbol id="disable"><path fill="#979797" d="M8 14A6 6 0 1 0 8 2a6 6 0 0 0 0 12zm0 2A8 8 0 1 1 8 0a8 8 0 0 1 0 16zm4.607-14l1.414 1.414L3.414 14.021 2 12.607 12.607 2z"/></symbol><symbol id="done"><path fill="#4A4A4A" d="M5.939 6.667L12.327.279a1 1 0 1 1 1.415 1.414L6.67 8.764a.998.998 0 0 1-.791.29.997.997 0 0 1-.675-.293L.96 4.518a1 1 0 0 1 1.414-1.414l3.564 3.563z"/></symbol><symbol id="example"><path d="M1 0h9.556a1 1 0 0 1 1 1v6.889a1 1 0 0 1-1 1H1a1 1 0 0 1-1-1V1a1 1 0 0 1 1-1zm12.333 2.688L15.149.895a.5.5 0 0 1 .851.356v6.477a.5.5 0 0 1-.857.35l-1.777-1.81-.033-3.58zM2.5 6a.5.5 0 1 0 0 1h4a.5.5 0 1 0 0-1h-4z"/></symbol><symbol id="eye_close"><path fill="#5F295F" d="M16.129 6.857a22.835 22.835 0 0 1 2.929 3.692s-4.267 7.147-9.53 7.147a7.109 7.109 0 0 1-3.327-.907l-2.905 2.906a1.245 1.245 0 1 1-1.76-1.76l2.576-2.576c-.228-.19-.448-.386-.66-.585l1.927-1.927c.148.26.32.505.512.732l1.69-1.691a2.344 2.344 0 0 1-.386-.858l2.815-2.814c.31.07.6.2.858.386l1.674-1.675a4.929 4.929 0 0 0-.714-.528l1.696-1.696c.251.16.485.343.724.52l3.858-3.858a1.245 1.245 0 1 1 1.76 1.76L16.13 6.857zm-6.6 8.457a4.764 4.764 0 0 0 4.764-4.765 4.616 4.616 0 0 0-.295-1.555l-2.18 2.178a2.373 2.373 0 0 1-1.667 1.668l-2.194 2.194a4.667 4.667 0 0 0 1.572.28zM4.832 9.873l-3.081 3.082A21.653 21.653 0 0 1 0 10.55s4.267-7.146 9.529-7.146a6.194 6.194 0 0 1 1.548.219l-2.23 2.23a4.74 4.74 0 0 0-4.015 4.02z"/></symbol><symbol id="eye_open"><path d="M10 3c5.52 0 10 7 10 7s-4.48 7-10 7-10-7-10-7 4.48-7 10-7zm0 12a5 5 0 1 0 0-10 5 5 0 0 0 0 10zm-2-5a1.99 1.99 0 0 0 1.74-2.974C9.83 7.019 9.91 7 10 7a3 3 0 1 1-3 3 2.3 2.3 0 0 1 .03-.263c.295.17.63.261.97.263z" fill="#AEAEAE"/></symbol><symbol id="hint"><circle cx="10" cy="10" r="9" fill="none" stroke="#1415DF" stroke-width="2"/><path d="M8.83 11.944c0-.638.078-1.146.233-1.524.155-.378.439-.75.851-1.118.413-.367.687-.665.824-.895.137-.23.205-.473.205-.728 0-.77-.355-1.156-1.066-1.156-.338 0-.608.104-.81.311-.203.208-.31.494-.318.858H6.766c.01-.87.29-1.551.845-2.044.553-.492 1.309-.738 2.266-.738.966 0 1.716.234 2.249.7.533.468.8 1.128.8 1.98 0 .387-.087.753-.26 1.097-.173.344-.476.726-.91 1.145l-.553.526a1.875 1.875 0 0 0-.595 1.17l-.027.416H8.83zm-.197 2.099a1 1 0 0 1 .31-.755c.208-.199.473-.298.797-.298.324 0 .589.1.796.298a1 1 0 0 1 .311.755c0 .3-.101.55-.304.745-.203.196-.47.294-.803.294-.333 0-.6-.098-.803-.294a.992.992 0 0 1-.304-.745z" fill="#1415DF"/></symbol><symbol id="hint_fill"><circle cx="10" cy="10" r="10" fill="#1415DF"/><path d="M8.83 11.944c0-.638.078-1.146.233-1.524.155-.378.439-.75.851-1.118.413-.367.687-.665.824-.895.137-.23.205-.473.205-.728 0-.77-.355-1.156-1.066-1.156-.338 0-.608.104-.81.311-.203.208-.31.494-.318.858H6.766c.01-.87.29-1.551.845-2.044.553-.492 1.309-.738 2.266-.738.966 0 1.716.234 2.249.7.533.468.8 1.128.8 1.98 0 .387-.087.753-.26 1.097-.173.344-.476.726-.91 1.145l-.553.526a1.875 1.875 0 0 0-.595 1.17l-.027.416H8.83zm-.197 2.099a1 1 0 0 1 .31-.755c.208-.199.473-.298.797-.298.324 0 .589.1.796.298a1 1 0 0 1 .311.755c0 .3-.101.55-.304.745-.203.196-.47.294-.803.294-.333 0-.6-.098-.803-.294a.992.992 0 0 1-.304-.745z" fill="#FFF"/></symbol></svg>