<svg  width="20"
      height="20"
      xmlns="http://www.w3.org/2000/svg" xmlns:xlink="http://www.w3.org/1999/xlink">

<path fill="#5F295F"
      d="M16.129 6.857a22.835 22.835 0 0 1 2.929 3.692s-4.267 7.147-9.53 7.147a7.109 7.109 0 0 1-3.327-.907l-2.905 2.906a1.245 1.245 0 1 1-1.76-1.76l2.576-2.576c-.228-.19-.448-.386-.66-.585l1.927-1.927c.148.26.32.505.512.732l1.69-1.691a2.344 2.344 0 0 1-.386-.858l2.815-2.814c.31.07.6.2.858.386l1.674-1.675a4.929 4.929 0 0 0-.714-.528l1.696-1.696c.251.16.485.343.724.52l3.858-3.858a1.245 1.245 0 1 1 1.76 1.76L16.13 6.857zm-6.6 8.457a4.764 4.764 0 0 0 4.764-4.765 4.616 4.616 0 0 0-.295-1.555l-2.18 2.178a2.373 2.373 0 0 1-1.667 1.668l-2.194 2.194a4.667 4.667 0 0 0 1.572.28zM4.832 9.873l-3.081 3.082A21.653 21.653 0 0 1 0 10.55s4.267-7.146 9.529-7.146a6.194 6.194 0 0 1 1.548.219l-2.23 2.23a4.74 4.74 0 0 0-4.015 4.02z" />
</svg>
