<svg  width="20"
      height="20"
      xmlns="http://www.w3.org/2000/svg"      xmlns:xlink="http://www.w3.org/1999/xlink">

<circle cx="10"
        cy="10"
        r="10"
        fill="#1415DF"/>

<path d="M8.83 11.944c0-.638.078-1.146.233-1.524.155-.378.439-.75.851-1.118.413-.367.687-.665.824-.895.137-.23.205-.473.205-.728 0-.77-.355-1.156-1.066-1.156-.338 0-.608.104-.81.311-.203.208-.31.494-.318.858H6.766c.01-.87.29-1.551.845-2.044.553-.492 1.309-.738 2.266-.738.966 0 1.716.234 2.249.7.533.468.8 1.128.8 1.98 0 .387-.087.753-.26 1.097-.173.344-.476.726-.91 1.145l-.553.526a1.875 1.875 0 0 0-.595 1.17l-.027.416H8.83zm-.197 2.099a1 1 0 0 1 .31-.755c.208-.199.473-.298.797-.298.324 0 .589.1.796.298a1 1 0 0 1 .311.755c0 .3-.101.55-.304.745-.203.196-.47.294-.803.294-.333 0-.6-.098-.803-.294a.992.992 0 0 1-.304-.745z"
      fill="#FFF" />
</svg>
